<svg xmlns="http://www.w3.org/2000/svg" viewBox="5 42 653 653" width="653" height="653"><style>.fl{fill:#EDEAE2}.fp{fill:#2A2A25}.fh{fill:#0A0A09}.fa{fill:#E3A94B}.ks{fill:none;stroke:#EDEAE2;stroke-linecap:round;stroke-linejoin:round}</style><path class="fp" d="M616,579C615,578 605,578 596,578L578,577L567,572C552,565 544,557 541,549C540,546 538,543 538,542C537,542 537,541 537,539C537,531 525,525 517,529C511,533 509,541 513,546C517,551 514,560 507,565C494,574 477,558 484,544C486,540 487,537 489,516C491,499 488,495 474,493C467,493 464,491 459,486C451,478 440,479 435,489C432,493 430,494 426,493C413,489 407,501 414,517C416,521 418,526 418,527C418,530 424,534 430,536C456,543 438,571 406,574C396,574 395,574 388,560C385,553 380,546 378,543C376,540 371,533 368,527C357,506 343,501 335,515C331,524 322,536 317,541C310,547 309,552 312,560C315,567 308,577 300,577C293,577 281,570 272,559C262,547 262,543 272,532C281,523 290,505 290,496C290,481 268,479 260,493C257,499 255,499 249,497C241,495 236,496 231,501C230,503 228,504 227,504C217,504 214,512 216,528C217,532 218,537 219,539C219,542 220,545 224,548C234,558 228,570 212,574C200,577 195,572 193,557C192,553 191,547 190,545C188,542 187,537 186,534C182,517 170,510 161,520C158,523 148,553 148,560C148,562 143,572 140,575C137,578 129,579 121,577C114,576 113,563 119,556C124,549 120,540 112,537C107,536 104,537 93,544C88,547 78,552 71,555C64,558 56,562 54,564C49,567 47,568 47,565C47,562 51,559 70,550C103,534 105,532 105,502C105,473 86,432 69,425C58,421 49,416 48,413C46,410 44,343 46,336C48,328 59,325 66,331C71,335 92,342 100,342C103,342 107,343 110,344C114,345 116,345 119,344C122,343 123,343 126,345C133,349 141,347 144,342C147,338 147,307 145,304C140,297 126,296 120,303L117,306L110,304C106,303 99,301 94,299C89,298 84,296 82,296C79,294 74,293 57,289C47,286 44,285 47,281C48,280 48,275 49,259L49,240L53,236C60,229 58,220 49,215C39,210 40,205 50,209C59,214 77,221 88,225C94,227 102,231 107,233C116,236 134,243 139,245C142,246 149,244 152,241C154,238 154,237 154,208C155,174 155,174 149,168C144,162 146,160 152,165C158,172 158,168 158,236L158,298L161,301C167,307 177,307 183,301L186,298L186,231C186,159 186,161 191,164C193,165 197,165 200,166C203,166 206,166 206,166C206,166 210,169 214,173C220,179 225,182 238,189C260,202 263,205 263,223C263,236 266,239 283,241C306,244 311,250 312,280C312,301 313,303 318,306C323,308 328,308 334,305C346,298 350,297 364,298C367,298 370,298 372,297C378,293 378,293 379,259C380,225 380,223 386,218C389,214 395,211 400,211C412,211 416,206 416,192C416,175 419,170 431,165C438,162 454,162 454,164C454,166 454,167 446,167C419,170 419,170 419,214L419,247L422,251C425,253 426,255 426,257C426,260 425,262 422,265C419,270 418,275 420,280C422,282 422,284 421,289C419,305 420,308 431,314C435,316 440,319 442,320C448,326 454,328 460,325C466,322 466,324 465,270C465,215 465,206 469,198C472,194 472,192 472,183L472,172L480,167C491,160 493,161 492,168C491,181 501,184 517,177C521,174 527,172 529,171C530,171 537,168 543,165C554,159 558,158 559,161C559,162 555,164 547,168C540,171 530,175 524,178C519,181 513,183 512,183C511,184 506,186 501,189C496,191 490,193 487,194C475,197 471,202 471,211C471,225 491,230 501,218C502,217 505,216 507,215C509,215 512,214 514,213C516,211 520,210 524,209C531,208 534,206 537,203C538,201 540,200 540,200C544,200 549,198 553,195C555,193 558,191 560,190C562,188 565,186 567,185C569,184 572,183 574,182C576,181 579,180 582,178C584,177 588,175 590,174C593,174 597,172 598,171C600,170 602,168 605,168C607,167 610,165 611,163C617,158 617,159 617,194C617,229 616,233 612,228C605,222 594,225 590,233C584,247 599,257 612,248C615,246 616,245 618,246C620,248 618,250 613,253C603,258 604,270 614,274C618,276 619,277 616,279C614,282 615,289 617,293C622,299 622,373 617,373C605,373 601,389 611,396C617,400 616,401 605,401C586,403 571,407 560,414C544,425 543,457 557,478C559,480 561,483 562,486C564,488 566,491 568,491C571,493 571,493 569,497C568,499 567,501 567,501C567,502 565,502 562,501C556,499 551,500 546,505L543,508L543,528C543,551 543,552 557,561C572,571 573,571 597,572C619,573 622,573 622,578C622,580 621,580 616,579ZM586,491C583,489 586,484 590,485C592,485 596,484 598,483C612,478 622,477 622,480C622,482 620,484 613,484C610,485 605,486 600,488C592,492 590,493 586,491Z"/><path class="fl" fill-rule="evenodd" d="M617,581C616,580 607,580 596,580L578,579L566,573C546,564 538,554 534,536C533,530 525,527 520,529C518,530 515,531 514,532C509,534 509,539 513,544C519,551 518,559 509,566C495,577 473,560 482,543C484,539 485,537 487,516C489,499 488,497 474,495C465,494 459,491 457,486C454,478 453,478 446,479C442,479 442,480 440,483C435,495 431,497 423,493C419,491 415,490 414,490C413,490 411,489 410,488C405,484 404,489 409,500C413,509 417,518 418,521C419,522 420,525 421,528C422,533 423,534 428,534C434,534 438,536 442,541C454,554 431,575 404,575C393,576 393,575 386,561C383,554 378,547 376,544C374,541 370,535 367,530C365,525 361,519 359,516C357,513 354,508 352,504C348,496 347,496 342,508C332,528 321,542 314,544C310,546 309,548 312,555C316,565 314,572 307,577C298,582 283,575 270,560C260,548 260,542 270,531C274,527 278,522 280,518C283,512 290,495 290,493C290,493 291,491 292,489C298,481 295,478 288,482C285,484 283,484 276,484C265,484 265,485 263,490C260,502 250,504 245,495C243,490 239,493 234,501C230,506 223,507 223,501C223,499 218,495 216,495C212,495 211,497 213,501C214,505 218,524 220,536C221,542 221,543 226,547C237,557 230,572 211,576C199,579 193,573 191,558C190,554 189,549 188,546C187,544 185,539 184,535C177,510 174,502 171,502C170,502 169,504 167,508C166,512 164,516 163,518C159,528 150,555 150,560C150,564 144,574 141,577C137,580 127,581 120,579C112,577 110,563 117,555C118,554 119,551 120,549C120,548 121,544 123,542C124,540 126,533 128,527C130,522 132,516 133,514C136,508 136,501 134,494C133,491 132,486 131,483C131,476 129,474 124,476C122,476 118,477 116,477C110,477 109,478 110,486C112,498 111,522 107,531C103,541 94,547 70,558C65,560 58,563 55,565C49,570 46,570 45,566C45,561 47,559 68,549C102,533 103,531 103,502C103,476 84,435 69,428C67,427 64,426 62,425C60,424 58,423 57,422C56,422 54,420 52,419C44,416 44,416 43,375C43,334 43,332 49,328C55,324 65,326 71,332C73,334 74,335 77,335C78,335 83,336 86,337C90,338 96,339 100,340C108,341 112,343 112,346C112,350 108,350 101,348C78,342 74,343 75,356C76,374 80,386 85,387C88,387 100,375 102,368C105,360 109,359 112,364C114,368 113,371 106,378C92,395 92,395 99,401C104,406 109,412 109,415C109,416 110,419 111,421C114,431 105,437 95,433C87,431 86,431 90,438C95,447 101,458 103,463C105,471 106,471 117,470C129,469 131,467 127,459C127,457 125,452 124,447C123,439 123,434 125,415C125,409 125,408 124,408C121,408 120,413 120,422C120,431 118,434 116,430C114,427 114,405 116,396C117,391 118,381 119,366C120,339 120,337 127,344C129,346 129,346 129,363C129,383 129,382 131,382C134,382 149,364 148,361C145,349 144,342 144,328L144,314L148,311L152,307L152,253C152,224 152,194 152,187L152,174L148,170C144,165 143,163 145,161C147,159 149,160 154,164C160,171 160,167 160,238C160,307 160,307 165,305C166,305 171,304 176,304L184,304L184,233C184,166 185,162 186,161C192,157 191,155 192,235C193,308 193,308 196,312C201,321 202,321 214,321C225,322 227,321 225,318C219,310 219,307 223,298C227,288 233,289 231,300C227,316 228,321 235,319C241,318 248,327 251,338C252,340 252,344 253,346C253,347 253,351 253,355C252,360 252,362 253,364C254,366 255,369 255,371C255,375 257,379 259,378C261,377 261,376 260,369C260,361 261,358 265,359C270,360 272,372 269,387C265,405 268,405 280,389C292,373 295,367 290,365C283,362 286,355 292,358C297,360 298,359 300,349C303,338 302,337 294,336C284,335 284,335 287,347C287,353 285,352 280,347C276,342 274,342 271,349C268,353 266,354 263,352C261,350 262,346 265,342C270,337 267,333 259,333C257,333 257,333 257,329C257,327 257,300 257,269C258,203 259,207 242,198C238,196 233,193 231,192C229,190 225,188 222,187C219,186 216,184 214,181C210,176 206,173 204,173C199,173 197,167 201,164C204,162 207,164 216,172C222,178 227,181 240,188C263,201 265,204 265,224C265,236 266,238 271,238C289,238 308,246 312,255C313,258 313,265 314,286C315,319 315,319 323,311C336,298 355,292 366,298C376,304 376,304 377,262C378,233 378,226 379,223C383,214 392,209 403,209C414,209 414,209 414,193C414,177 415,174 420,169C429,160 457,157 457,164C457,167 454,169 444,169C433,170 429,172 425,176L422,179L421,214L421,248L424,250C435,256 427,268 412,271C409,271 405,272 403,273C400,274 397,274 397,271C395,267 400,264 408,265C416,266 416,264 416,252C415,246 415,236 415,230C414,223 414,218 413,217C412,215 400,216 394,219C385,224 385,221 384,268L383,310L386,318C391,328 392,331 393,349C394,374 396,377 402,367C406,361 406,360 403,349C398,335 401,325 412,318C418,314 420,311 417,308C415,306 415,282 417,280C421,274 424,279 423,290C421,302 422,307 425,309C426,309 431,311 434,313C450,320 455,335 448,349C445,355 446,356 452,363C458,369 459,369 459,361C459,358 459,351 460,345C461,334 461,334 459,332C456,328 456,326 460,323L464,320L463,270C463,214 463,205 467,197C470,193 470,191 470,185C470,173 480,160 491,160C498,160 496,167 488,170C482,172 479,176 477,182C475,192 478,193 487,188C490,187 494,185 495,185C496,184 504,181 512,177C519,173 527,170 530,169C532,168 536,167 539,165C555,156 561,155 561,161C561,163 559,165 548,169C540,173 530,177 524,180C519,183 513,185 512,186C511,186 506,188 502,190C497,193 490,195 486,196C474,200 472,204 472,226C472,240 473,244 475,243C476,243 477,244 477,245C477,246 476,247 475,247C473,246 472,250 472,258C472,268 473,270 476,270C479,270 480,273 480,282L480,290L485,290C492,289 502,286 510,283C512,281 519,279 525,277C531,275 538,273 540,272C543,271 549,269 552,268C556,266 565,263 571,261C578,259 583,257 584,257C584,256 587,255 590,254C594,253 600,251 604,249C617,244 621,244 621,248C621,250 617,254 613,255C611,255 607,256 605,257C603,259 596,261 590,263C584,265 578,267 575,268C573,269 570,270 570,270C569,270 567,271 564,272C562,273 558,275 554,276C550,277 544,279 540,280C528,285 510,291 500,294C494,296 489,298 487,298C486,299 483,300 480,300C473,302 473,302 473,319C474,334 474,334 476,334C478,334 479,333 483,327C488,317 490,316 500,312C515,308 519,309 517,318C515,327 515,328 521,333C527,338 529,342 529,349C529,353 529,354 530,356C534,358 537,354 537,348C537,345 538,340 539,337C542,329 542,325 538,323C532,320 531,312 537,310C539,309 541,308 542,307C543,307 545,306 547,306L550,306L550,326C550,344 550,345 552,348C555,352 555,353 551,356C549,359 549,359 550,371C551,386 551,393 549,395C546,398 540,394 541,390C542,387 539,385 533,385C526,385 525,387 528,392C529,393 530,396 530,398C530,399 531,403 532,406C533,409 534,415 535,424C535,438 536,441 540,438C541,437 541,435 541,429C541,422 541,422 545,421C547,420 548,418 549,416C551,411 553,410 566,404C572,402 572,401 568,395C563,389 560,379 562,374C565,365 566,354 566,342C566,321 573,302 588,285C597,273 620,268 620,277C620,279 619,280 610,280C603,281 603,281 598,287C590,295 581,308 580,313L580,317L588,316C597,316 596,317 604,305C610,294 618,289 621,294C622,296 623,369 622,372C620,376 615,376 614,370C612,365 595,347 592,347C588,347 572,361 572,364C572,368 580,366 582,362C583,358 586,356 589,359C593,363 590,371 585,370C582,369 579,375 579,380C579,385 589,386 591,381C592,379 594,379 594,382C594,384 588,390 585,390C582,391 578,389 577,384C575,375 570,375 570,382C570,386 571,387 574,391L578,394L596,394C613,394 614,395 616,397C619,400 617,403 612,403C584,403 560,412 554,425C546,441 548,460 560,479C570,494 570,494 570,499C570,509 556,502 556,491C556,484 549,472 544,472C539,472 540,483 547,493L550,498L548,502C546,506 545,508 545,526L545,546L548,551C558,564 573,570 598,570C616,570 617,570 620,572C627,577 624,584 617,581ZM137,569C143,564 140,560 130,560C123,560 120,562 120,566C120,571 132,573 137,569ZM213,567C227,563 225,552 211,555C201,558 201,558 201,560C199,567 205,570 213,567ZM506,558C509,556 510,552 507,550C505,548 492,549 490,551C486,558 498,563 506,558ZM141,553C142,553 143,551 144,549C145,547 146,543 147,540C149,537 151,531 152,526C154,521 157,513 159,508C164,496 164,496 155,496C146,496 147,495 143,510C139,523 136,532 132,541C127,550 133,557 141,553ZM398,546C406,540 406,538 399,541C393,543 389,546 391,548C393,551 393,550 398,546ZM204,546C212,544 212,543 211,537C211,534 209,524 207,514C205,505 203,495 202,492L200,486L189,481L178,477L173,479C169,481 169,481 166,479C164,478 161,476 159,476C157,475 153,473 151,471C146,467 144,467 143,474C142,479 143,486 144,488C147,490 164,489 167,486C173,481 180,486 180,494C180,499 186,517 188,519C189,520 191,526 193,533C197,548 197,548 198,548C199,548 201,547 204,546ZM297,539C299,537 297,535 292,533C287,531 287,531 286,534C285,539 294,543 297,539ZM390,537C391,536 396,533 400,531C412,526 412,526 400,501C398,497 396,491 394,488C393,484 392,480 391,478C390,477 390,474 389,471C387,464 383,464 364,468C355,470 331,471 322,469C311,467 312,467 308,474C303,485 289,516 288,519C288,522 288,522 291,523C293,524 295,526 296,527C297,529 299,530 300,530C300,530 303,531 306,533C312,536 315,535 319,530C330,513 335,505 343,486C347,477 352,474 356,480C359,484 359,488 355,485C352,482 352,486 354,490C355,493 356,495 356,496C356,496 358,499 360,502C362,505 364,509 365,510C368,516 373,522 376,524C378,525 380,526 380,527C380,527 380,530 380,532C381,540 385,542 390,537ZM539,529C540,526 539,518 537,517C536,517 532,520 532,522C532,527 538,533 539,529ZM521,519C533,512 540,499 537,489C536,486 535,483 535,482C535,479 528,468 524,465C516,459 507,468 505,485C504,493 504,495 501,499C498,504 496,517 498,520C499,520 506,521 512,522C513,522 517,520 521,519ZM370,513C369,512 369,510 369,510C369,509 368,508 368,507C366,505 366,501 368,501C370,501 375,507 375,510C375,514 372,516 370,513ZM311,498C312,491 314,489 316,490C319,491 319,492 316,498C313,503 311,504 311,498ZM385,495C383,493 384,489 386,488C388,487 390,489 390,493C389,496 387,497 385,495ZM586,492C581,487 585,481 590,483C594,484 594,484 600,481C612,475 624,475 624,480C624,484 622,485 615,486C611,486 605,488 601,490C592,495 589,495 586,492ZM224,480L224,470L218,470C211,470 209,471 208,477C208,483 211,487 217,489C224,490 224,490 224,480ZM496,489C499,487 499,477 497,476C493,473 481,484 484,487C485,490 494,491 496,489ZM235,476C235,467 234,464 231,465C230,466 230,481 232,487C233,493 235,486 235,476ZM431,486C436,479 436,474 432,445C430,433 430,424 432,423C434,422 437,425 437,428C437,432 441,444 442,445C448,452 452,421 448,401C446,392 446,385 448,379C454,360 420,356 409,375C403,384 403,387 408,398C410,404 412,409 413,409C417,414 423,439 424,454C425,457 426,462 426,465C427,468 427,470 426,475C423,486 426,493 431,486ZM479,483C480,477 480,476 473,476C464,476 461,480 466,485C470,489 478,488 479,483ZM418,480C420,478 419,465 417,464C412,461 408,466 410,473C411,481 414,483 418,480ZM258,477C259,475 256,471 253,470C250,470 245,475 246,478C247,480 257,480 258,477ZM290,473C299,468 301,465 296,460C292,456 285,459 285,465C285,467 284,469 282,470C274,476 279,477 290,473ZM199,473C202,468 200,465 196,467C190,470 190,470 190,458C190,449 191,446 192,446C193,446 194,447 194,448C194,451 199,463 200,463C205,463 207,433 202,424C201,420 200,415 199,409C198,393 192,381 183,377L178,375L175,377C174,378 171,383 169,386C163,399 153,400 148,388C145,381 143,381 139,389C132,404 138,417 146,406C149,401 151,400 153,401C156,402 155,408 150,422C143,442 146,462 157,465C160,465 161,464 158,459C158,457 161,454 163,454C166,454 166,458 164,463C161,469 162,469 176,470C188,470 188,470 190,473C193,475 198,476 199,473ZM272,470C278,461 277,457 268,455C258,453 255,458 262,465C263,467 265,470 265,471C265,473 267,475 268,475C269,475 270,473 272,470ZM401,471C403,467 401,439 398,437C393,432 392,466 397,472C399,474 400,473 401,471ZM458,472C459,471 460,450 458,447C457,443 451,446 449,452C448,454 447,457 446,457C443,459 444,466 448,470C451,473 456,474 458,472ZM473,467C475,466 475,465 475,463C472,448 473,436 477,427C479,422 479,422 477,415C476,412 475,408 475,407C475,405 472,406 470,409C470,410 469,419 468,428C467,438 466,449 466,454C464,467 468,473 473,467ZM495,467C497,466 497,465 497,462C496,454 497,454 498,453C499,453 500,454 501,456C503,460 505,461 509,459C511,458 512,394 510,388C508,384 505,385 504,391C504,395 501,398 500,395C497,389 495,398 498,405C499,409 499,411 497,413C497,414 494,418 493,422C490,427 488,429 486,430C480,433 478,455 483,468C483,470 490,469 495,467ZM219,457C219,451 219,449 216,445C212,439 212,439 211,451C211,464 211,464 215,464C218,464 218,464 219,457ZM538,461C543,457 535,445 528,445C525,445 521,448 521,450C521,455 535,465 538,461ZM358,461C390,457 387,460 387,433C387,412 388,409 393,410C397,411 405,431 407,444C408,452 409,454 413,454C419,454 417,440 405,410C404,408 401,402 399,399C397,395 394,390 393,388C390,382 385,378 379,376C377,375 374,375 373,374C373,374 371,375 369,377C364,383 349,383 344,377C340,372 339,372 330,374C311,378 285,402 275,425C271,433 271,433 279,437C283,439 286,441 287,441C292,445 294,444 302,432C307,423 321,409 324,408C330,407 329,410 321,420C317,425 316,427 316,440C315,444 314,450 314,452C311,456 312,458 314,459C319,461 345,463 358,461ZM245,455C244,453 245,425 246,423C247,422 249,421 251,420C256,420 257,418 257,415C257,414 257,412 258,411C258,410 259,405 259,400L260,390L254,385C252,383 249,380 248,379C247,377 247,377 243,378C241,379 237,380 234,380C228,380 223,382 221,385C219,389 219,434 222,440C223,444 224,449 225,452C226,459 228,461 230,458C232,454 230,435 226,428C223,422 224,419 229,419C234,419 236,422 236,431C236,434 237,440 237,443C238,445 239,450 239,452C239,459 242,462 244,459C245,458 246,456 245,455ZM164,451C163,451 161,450 160,450C157,449 156,445 159,446C159,446 162,446 165,446C170,446 172,448 168,451C166,452 166,452 164,451ZM282,451C284,448 274,441 271,443C267,444 269,448 274,450C281,452 280,452 282,451ZM139,437C140,431 140,423 141,421C143,415 140,412 135,414C130,417 132,451 137,450C138,450 139,448 139,437ZM258,446C259,444 259,430 258,428C257,427 257,427 255,429C252,431 251,445 253,447C254,449 257,448 258,446ZM525,435C526,433 526,419 524,413C524,411 523,407 523,404C523,402 523,400 522,399C521,399 520,397 519,395C517,391 516,391 517,396C517,399 518,402 519,403C519,405 520,410 520,420C519,433 520,436 522,436C523,436 524,435 525,435ZM100,426C102,425 101,413 99,410C96,406 88,402 85,403C70,411 74,427 90,427C95,427 99,426 100,426ZM491,413C492,408 486,390 483,390C477,390 473,403 477,406C477,407 479,409 479,411C482,416 489,417 491,413ZM184,406C182,401 186,396 190,399C190,400 191,402 191,403C191,408 186,410 184,406ZM459,388C459,382 458,380 455,382C453,385 452,391 455,394C458,397 459,396 459,388ZM471,391C475,388 475,387 471,383C467,379 466,380 466,386C466,394 467,394 471,391ZM161,386C169,380 169,370 160,374C155,377 154,379 155,383C157,387 158,388 161,386ZM602,382C601,381 600,380 600,378C601,373 608,374 608,379C608,384 604,385 602,382ZM481,378C482,377 482,376 480,364C478,354 475,355 474,367C473,378 476,383 481,378ZM540,375C543,369 539,361 533,361C529,361 524,372 527,375C530,377 539,378 540,375ZM513,370C516,366 517,364 518,359C519,351 519,351 516,350C515,349 512,347 510,345C502,336 485,346 487,359C489,373 504,380 513,370ZM216,369C218,364 218,363 217,359C217,357 216,354 216,353C216,351 215,350 215,349C207,343 207,343 205,344C202,346 203,349 206,350C213,351 210,359 202,360C195,362 194,368 200,370C202,370 205,371 207,372C211,375 213,375 216,369ZM469,364C470,355 469,351 467,353C466,353 466,371 467,372C468,374 469,372 469,364ZM236,364C240,362 245,351 245,347C243,339 235,335 230,341C220,351 225,370 236,364ZM185,361C189,358 191,355 191,352C191,351 189,351 186,352C182,352 181,352 181,351C179,347 184,343 189,345C194,346 194,332 189,327C187,325 175,324 172,326C170,327 169,330 172,331C173,331 173,335 171,336C171,336 168,335 166,334C163,332 163,332 161,335C158,339 156,345 158,347C159,348 160,350 160,351C160,353 162,355 166,359C173,365 178,366 185,361ZM366,361C380,350 381,336 368,329C362,326 359,326 355,331C351,336 347,338 344,338C338,338 336,344 340,349C342,351 343,353 343,354C343,362 358,367 366,361ZM231,354C229,353 230,348 232,347C236,346 240,351 237,354C236,355 232,355 231,354ZM433,350C440,348 446,340 445,334C444,331 435,322 431,320C427,318 419,319 419,322C419,323 424,323 424,322C425,321 429,321 429,322C429,322 430,323 431,324C434,325 439,335 439,338C436,344 428,341 428,335C428,330 428,330 424,330C418,330 413,337 417,342C418,343 419,345 419,346C421,351 426,352 433,350ZM223,334C223,331 221,330 218,332C216,333 215,337 216,341L217,344L220,340C222,338 223,336 223,334ZM207,336C208,333 205,329 202,331C201,333 201,334 203,337C205,340 207,340 207,336ZM280,327C282,325 283,323 283,322C282,320 282,317 281,314C281,312 280,308 280,306C279,302 280,299 283,299C286,299 288,306 288,322C289,328 290,330 297,330C305,330 304,330 304,292L304,259L300,255C295,250 285,247 276,246C265,245 265,245 265,266C265,285 265,286 270,286C271,286 275,287 279,288C285,289 285,289 288,287C291,285 293,284 295,286C299,291 293,293 280,293C265,293 266,292 266,311C266,326 266,326 268,328C272,331 277,331 280,327ZM509,327C510,324 510,320 509,319C505,316 494,325 496,328C498,330 508,329 509,327ZM110,306C106,305 99,303 94,302C90,300 84,298 82,297C79,296 76,295 57,291C46,289 42,285 44,282C45,280 50,280 55,282C57,283 61,285 65,285C68,286 73,288 76,288C79,289 83,290 84,290C86,290 89,291 90,292C92,292 96,294 100,295C104,296 109,298 111,298C113,299 117,300 118,301C122,301 122,305 119,307C117,308 117,308 110,306ZM130,299C130,298 130,287 130,275C130,249 130,249 122,247C120,246 116,244 114,243C113,242 106,239 99,237C93,235 87,233 87,232C86,232 84,231 83,231C82,230 78,229 76,228C73,226 66,224 61,222C44,216 39,212 41,207C42,204 44,204 50,207C58,211 74,218 88,223C106,230 111,232 112,233C113,233 118,235 123,237C143,244 147,248 140,254C138,256 138,257 138,277C138,292 138,298 137,299C135,300 131,300 130,299ZM110,291C106,287 106,287 106,274L106,262L111,261C117,261 121,264 119,270C119,272 119,278 119,283C119,291 119,292 117,293C114,295 113,294 110,291ZM86,286C80,283 80,282 79,267C79,249 80,245 86,251C88,253 88,254 88,261C87,272 88,278 91,278C94,278 96,272 95,266C94,261 94,258 97,258C99,258 100,277 98,281C94,288 92,289 86,286ZM231,285C229,283 230,280 233,278C236,276 238,278 238,282C238,285 234,287 231,285ZM210,278C207,276 206,275 206,273C206,269 208,268 213,271C220,276 220,275 221,263C222,251 223,247 228,245C235,243 231,239 223,239C206,239 197,231 213,230C220,230 220,230 220,225C220,221 222,219 225,221C227,223 226,228 223,230C221,233 224,235 229,235C237,235 238,243 231,250C229,253 228,254 228,262C228,270 228,270 226,272C224,273 223,275 223,277C221,280 217,281 210,278ZM276,278C272,275 274,268 279,269C281,270 285,274 285,276C285,279 280,281 276,278ZM486,278C485,277 484,248 484,227C484,224 486,222 488,222C490,222 492,269 491,277C490,279 487,280 486,278ZM62,277C60,274 60,274 60,261C60,246 61,244 65,244C70,245 71,247 68,251C65,254 65,253 67,258C68,261 68,263 67,265C66,268 66,272 68,274C71,279 67,281 62,277ZM48,273C46,272 46,270 47,266C47,264 47,256 47,250C48,237 49,234 53,237C55,238 56,241 56,256C56,274 53,280 48,273ZM500,272C499,267 500,245 502,241C506,235 504,228 500,227C494,226 494,224 499,218C503,214 508,213 510,215C511,216 511,263 510,269C510,273 502,275 500,272ZM515,267C514,266 514,264 514,257C515,252 515,240 514,230C513,212 514,208 518,208C522,208 523,210 522,216C521,219 521,222 522,223C523,228 522,264 520,267C519,269 518,270 515,267ZM535,260C532,258 533,256 536,250C538,245 538,245 537,237C536,232 536,226 536,221C537,211 536,209 529,210C525,210 525,210 525,208C525,207 527,206 529,206C531,206 533,205 535,202C540,195 548,200 542,208C541,210 541,211 542,214C543,218 544,220 544,243C544,260 542,264 535,260ZM551,246C549,226 551,206 555,209C559,213 571,207 571,202C571,200 568,194 567,194C565,194 557,200 555,203C552,208 552,208 551,203C550,197 551,193 554,191C556,190 558,189 560,187C574,176 580,179 576,196C575,203 575,203 577,206C580,210 580,212 577,217C574,222 573,222 569,218C566,213 566,214 559,220C555,224 553,231 556,234C559,236 566,233 569,228C575,220 578,223 578,235C578,248 571,255 569,245C568,238 562,240 560,248C557,256 552,255 551,246ZM585,238C584,237 584,228 583,211C583,197 582,185 582,184C581,183 581,181 581,178C581,175 587,173 590,173C591,174 593,173 595,171C601,166 603,166 606,167C608,169 608,169 609,166C610,160 615,157 618,160C620,163 619,228 617,229C612,233 610,231 610,223C610,219 608,217 607,220C603,225 596,228 595,224C593,219 600,210 606,211C610,212 610,210 610,202C610,194 609,194 604,199C599,204 596,204 595,199C595,193 600,188 605,188C610,188 612,184 610,177C609,170 609,170 603,175C600,179 598,180 595,180C590,181 590,183 591,213C591,226 591,236 591,237C590,239 587,240 585,238Z"/><path class="fh" fill-rule="evenodd" d="M295,574C287,571 272,558 268,550C263,540 275,532 284,540C288,544 290,545 298,545C307,545 314,563 307,570C303,574 300,575 295,574ZM400,571C391,569 390,560 398,552C404,547 404,547 409,541C413,536 415,536 426,538C436,539 441,543 441,549C441,560 414,574 400,571ZM59,418C48,416 48,415 47,374L47,338L50,335C55,329 62,329 68,335C71,339 71,339 71,352C71,372 74,382 81,390C84,394 84,397 79,403C77,405 74,409 73,411C68,417 65,419 59,418ZM304,377C298,376 295,367 300,362C303,358 306,344 305,338C304,330 310,321 317,319C320,318 323,316 326,313C340,301 353,297 365,303C368,304 371,305 372,305C375,305 380,312 380,315C380,322 374,325 365,324C359,323 356,324 350,329C347,332 344,334 341,335C333,337 331,344 335,350C344,360 341,368 327,370C323,371 318,373 316,374C311,377 308,378 304,377ZM607,351C605,351 603,349 601,347C596,343 591,342 586,345C577,349 570,345 570,334C570,325 580,318 591,320C594,321 599,320 602,316C606,313 612,313 615,317C619,322 620,343 616,348C613,351 610,352 607,351ZM155,329C154,329 152,328 151,326C143,316 159,304 167,313C173,320 165,331 155,329Z"/></svg>