<svg xmlns="http://www.w3.org/2000/svg" viewBox="81 107 492 492" width="492" height="492"><style>.fl{fill:#EDEAE2}.fp{fill:#2A2A25}.fh{fill:#0A0A09}.fa{fill:#E3A94B}.ks{fill:none;stroke:#EDEAE2;stroke-linecap:round;stroke-linejoin:round}</style><path class="fp" d="M258,533C211,528 185,504 204,483C211,476 227,468 239,466C253,464 258,460 258,452C258,441 254,440 206,439C162,439 162,439 155,446C138,463 120,479 119,478C118,478 121,474 128,467C153,444 158,439 159,438C160,437 169,437 180,437C213,437 219,431 207,412C200,401 194,383 194,371C194,369 193,364 191,360C182,342 187,319 204,301C209,295 209,295 209,290C208,279 206,274 204,271C193,258 193,240 204,235C230,223 261,244 251,268C248,275 248,281 251,285C255,289 256,292 256,298C256,303 257,305 261,314C265,321 267,328 269,336C278,371 305,366 311,329C312,325 313,306 313,285C314,226 316,215 329,200C357,165 412,166 435,202C437,205 440,210 441,211C443,214 446,222 450,235C457,257 466,270 485,284C504,299 510,309 509,330C509,344 509,344 512,347C520,356 524,365 525,375C526,392 518,408 505,414C500,417 499,419 499,429C499,434 498,440 498,442C493,462 497,466 523,466C530,466 536,466 536,467C537,468 505,469 493,468C487,468 482,469 476,474C464,483 427,487 409,481C406,479 403,479 397,480C393,480 383,480 376,479C353,478 348,480 349,495C352,522 312,539 258,533Z"/><path class="fl" fill-rule="evenodd" d="M258,535C215,530 187,509 198,489C205,475 221,467 255,461C263,459 290,460 298,462C310,465 324,470 328,472C330,474 333,475 335,476C345,481 352,491 352,500C352,524 309,541 258,535ZM303,527C307,526 311,525 313,524C348,517 355,492 324,479C320,476 313,474 310,472C303,469 280,467 268,467C251,468 240,470 236,472C218,480 214,482 210,486C201,495 201,501 211,511C227,526 278,535 303,527ZM283,517C280,516 276,514 274,513C270,511 262,510 256,511C242,514 222,505 222,496C222,490 231,480 235,480C236,480 239,479 241,478C249,474 251,474 255,477C258,480 258,480 259,478C264,469 274,467 281,473C284,477 286,477 288,476C293,475 300,475 304,478C307,479 311,481 314,482C330,490 330,501 315,508C312,510 308,513 306,514C300,519 292,520 283,517ZM298,512C298,511 297,510 295,509C291,507 291,506 299,506C308,505 312,504 315,500C321,495 317,488 308,488C306,488 304,487 302,484C297,480 294,480 290,485C287,490 287,490 282,484C276,478 271,478 266,481C264,483 262,484 261,484C260,484 258,485 257,487C254,490 251,489 249,486C246,479 241,481 232,490C223,500 243,508 264,504C266,503 268,504 271,506C275,508 277,508 280,504C282,501 285,500 289,502C290,504 290,504 289,506C287,508 286,513 288,514C289,516 298,515 298,512ZM424,485C418,485 412,483 410,483C407,481 404,481 398,482C382,483 362,481 354,477C342,472 333,459 333,450L332,446L322,445C316,445 310,444 309,443C307,442 300,442 286,442C275,442 242,442 214,442L163,441L158,446C147,457 123,480 121,480C120,481 119,481 118,480C114,477 113,479 146,447C151,442 156,437 158,437C159,435 164,435 190,435C225,435 225,435 216,427C202,413 194,395 193,374C192,371 191,366 189,362C180,341 186,316 203,299L210,292L208,288C207,286 205,282 205,279C204,276 203,273 202,271C195,264 192,245 196,238C201,230 224,227 236,234C254,243 259,254 253,270C249,279 249,281 253,283C257,287 258,291 258,297C257,302 257,303 260,308C266,317 269,325 271,336C275,351 279,356 290,358C294,358 297,356 302,348C309,334 310,331 311,284C312,240 314,223 318,213C335,173 394,159 426,188C431,193 440,204 440,206C440,206 441,208 442,209C445,213 448,219 452,234C458,255 468,269 481,279C506,297 515,313 511,333C510,340 510,341 516,350C534,372 529,404 507,415C502,418 501,419 501,433C500,445 500,445 496,453C491,465 490,464 514,464C537,464 539,464 539,467C539,470 539,470 510,470C483,470 483,470 480,473C470,483 451,487 424,485ZM459,476C494,466 502,426 478,379C475,372 471,365 469,364C468,362 465,358 463,355C448,333 420,311 405,309C399,309 399,309 394,313C384,323 369,324 361,315C358,312 356,312 347,317C330,326 311,345 304,359C301,364 297,367 295,365C294,365 293,366 291,367C287,370 288,370 281,364C274,359 272,359 271,365C266,384 234,396 210,387C201,383 200,384 203,390C204,393 205,396 206,397C209,409 222,425 235,431L242,434L268,434L292,434L297,431C306,425 311,413 314,395C315,386 317,383 321,387C323,390 316,423 312,428C308,435 312,437 325,437C337,437 339,436 340,428C341,419 343,417 352,410C364,401 370,400 389,400C400,401 404,401 407,399C409,399 414,398 416,398C422,398 424,397 426,391C427,386 431,385 431,390C431,391 432,393 434,395C440,401 439,403 432,403C407,403 407,403 406,428C406,455 408,472 413,476C419,479 447,480 459,476ZM401,474C402,472 402,472 401,468C399,461 398,443 398,427C399,416 398,411 398,410C393,407 378,406 370,409C362,413 350,421 349,424C349,425 348,428 347,430C342,441 342,445 343,452C346,459 346,460 349,461C352,461 354,463 354,465C354,470 362,473 374,474C388,475 399,475 401,474ZM239,381C259,377 267,363 263,340C262,336 261,331 260,330C260,328 259,326 259,325C259,323 258,321 257,320C256,319 253,316 251,313C249,310 246,308 245,308C244,308 242,306 240,305C230,294 206,301 199,317C191,333 193,361 202,371C210,380 224,383 239,381ZM386,311C392,306 390,304 382,306C379,307 375,307 373,307C368,307 367,309 369,312C373,316 381,315 386,311ZM388,297C394,293 396,292 400,280C405,268 406,266 410,266C416,266 417,260 411,259C409,258 407,257 407,255C407,252 403,250 396,250C388,249 370,241 363,235C356,229 356,229 352,235C348,239 344,242 336,245C333,246 332,248 331,250C330,253 335,274 338,277C339,278 340,280 340,280C340,283 348,291 355,295L362,300L372,300C381,299 383,299 388,297ZM220,286C221,285 223,285 227,285C233,285 235,284 239,277C243,272 240,268 236,272C232,275 226,277 219,278C212,279 211,281 214,285C216,288 218,289 220,286ZM230,267C237,263 241,256 240,252C239,250 239,249 227,249C217,249 214,249 209,247C199,243 197,250 204,261C210,271 220,273 230,267ZM238,243C237,240 218,235 217,238C216,239 217,240 226,242C237,245 238,245 238,243Z"/><circle class="fl" cx="374" cy="254" r="6.5"/><circle class="fl" cx="347" cy="254" r="6.5"/><circle class="fl" cx="359" cy="265" r="3.6"/><path class="ks" style="stroke-width:4.9" d="M359,282Q365,287 371,282"/><path class="fh" fill-rule="evenodd" d="M500,411C496,410 493,406 491,398C489,390 477,366 473,361C471,359 468,355 466,352C452,331 424,310 409,306C399,304 397,299 403,285C407,275 409,271 414,269C421,266 421,261 413,254C406,247 406,247 397,246C388,245 373,238 365,231C357,225 355,225 347,233C322,259 306,231 330,202C346,182 370,173 398,178C420,181 438,202 447,232C455,256 464,272 478,282C503,300 510,314 507,336C506,341 507,344 513,353C522,364 524,370 523,383C522,399 510,413 500,411ZM321,325C317,325 314,319 314,314C315,312 315,303 315,294C315,279 315,279 318,276C323,270 331,273 336,282C337,284 341,289 346,293C356,304 355,308 342,315C339,317 334,320 332,321C327,325 325,326 321,325Z"/></svg>